# xmcd CD database file
#
# Track frame offsets:
#	150
#	7591
#	41013
#	88105
#	119790
#	138761
#	172249
#
# Disc length: 2607 seconds
#
# Revision: 1
# Processed by: cddbd v1.5PL3 Copyright (c) Steve Scherf et al.
# Submitted via: CDex 1.50
#
DISCID=570a2d07
DTITLE=ビル・クリントン - 大統領の英語 ビル・クリントン
DYEAR=1999
DGENRE=Speech
TTITLE0=And the Winner Is Clinton!
TTITLE1=A Time for Change
TTITLE2=A Declaration of Common Cause
TTITLE3=Rhetoric
TTITLE4=Lapse in Judgment
TTITLE5=Riding High
TTITLE6=Speaking for the Other Half
EXTD=YEAR: 1999
EXTT0=
EXTT1=
EXTT2=
EXTT3=
EXTT4=
EXTT5=
EXTT6=
PLAYORDER=
